<svg width="227" height="72" viewBox="0 0 227 72" fill="none" xmlns="http://www.w3.org/2000/svg">
<path d="M1 71C3.08012 71 12.4407 42.4198 31.5085 61.0403C32.5485 61.0403 41.0424 68.8347 49.5362 52.3795C52.1941 48.0492 59.6595 41.9867 68.2573 52.3795C71.1464 51.3691 77.4792 44.7581 79.698 26.3975C84.2049 15.4274 95.4376 5.26562 104.313 52.3795C106.508 59.8854 114.436 67.1026 128.581 35.9243C131.354 32.3157 138.427 30.6413 144.528 44.1519C156.547 26.5419 181.139 -2.87543 183.357 20.3351C185.576 43.5457 200.692 34.0477 207.972 26.3975C212.595 16.8708 222.672 -1.48971 226 1.2817" stroke="#63FFA1"/>
<path d="M31.5085 61.0402C12.4407 42.4198 3.08012 71 1 71H226V1.2817C222.672 -1.48971 212.595 16.8708 207.972 26.3975C200.692 34.0477 185.576 43.5457 183.357 20.3351C181.139 -2.87543 156.547 26.5419 144.529 44.1519C138.427 30.6413 131.354 32.3157 128.581 35.9243C114.436 67.1026 106.508 59.8854 104.313 52.3795C95.4376 5.26562 84.2049 15.4274 79.698 26.3975C77.4792 44.7581 71.1464 51.3691 68.2573 52.3795C59.6595 41.9867 52.1941 48.0492 49.5362 52.3795C41.0424 68.8347 32.5485 61.0402 31.5085 61.0402Z" fill="url(#paint0_linear_137_13)"/>
<defs>
<linearGradient id="paint0_linear_137_13" x1="113.5" y1="1" x2="113.5" y2="71" gradientUnits="userSpaceOnUse">
<stop stop-color="#63FFA1"/>
<stop offset="1" stop-color="#63FFA1" stop-opacity="0"/>
</linearGradient>
</defs>
</svg>
