<svg width="670" height="266" viewBox="0 0 670 266" fill="none" xmlns="http://www.w3.org/2000/svg">
<rect width="670" height="266" rx="8" fill="white" fill-opacity="0.55"/>
<path d="M112.52 119V98.56H117.952L123.076 110.768H123.58L128.676 98.56H134.192V119H130.244V101.556L130.748 101.612L125.232 114.828H121.172L115.628 101.612L116.16 101.556V119H112.52ZM138.479 124.992V121.66H141.335C141.876 121.66 142.324 121.585 142.679 121.436C143.052 121.305 143.36 121.081 143.603 120.764C143.846 120.465 144.032 120.045 144.163 119.504L148.251 103.796H151.975L147.467 120.344C147.168 121.483 146.748 122.388 146.207 123.06C145.666 123.751 144.966 124.245 144.107 124.544C143.267 124.843 142.222 124.992 140.971 124.992H138.479ZM143.211 118.664V115.584H146.459V118.664H143.211ZM141.895 118.664L136.967 103.796H140.887L145.563 118.664H141.895ZM169.624 119.504C168.374 119.504 167.272 119.243 166.32 118.72C165.368 118.179 164.622 117.395 164.08 116.368C163.539 115.341 163.24 114.1 163.184 112.644H163.772V119H160.692V98.56H164.584V108.78L163.548 110.376C163.623 108.808 163.931 107.501 164.472 106.456C165.032 105.411 165.779 104.627 166.712 104.104C167.646 103.581 168.7 103.32 169.876 103.32C170.922 103.32 171.874 103.516 172.732 103.908C173.591 104.3 174.328 104.851 174.944 105.56C175.56 106.251 176.027 107.063 176.344 107.996C176.68 108.929 176.848 109.947 176.848 111.048V111.636C176.848 112.737 176.68 113.764 176.344 114.716C176.008 115.668 175.523 116.508 174.888 117.236C174.254 117.945 173.488 118.505 172.592 118.916C171.715 119.308 170.726 119.504 169.624 119.504ZM168.756 116.228C169.596 116.228 170.324 116.023 170.94 115.612C171.575 115.183 172.07 114.604 172.424 113.876C172.779 113.148 172.956 112.308 172.956 111.356C172.956 110.385 172.779 109.545 172.424 108.836C172.07 108.127 171.575 107.576 170.94 107.184C170.324 106.792 169.596 106.596 168.756 106.596C167.991 106.596 167.282 106.764 166.628 107.1C165.994 107.436 165.471 107.931 165.06 108.584C164.668 109.237 164.472 110.021 164.472 110.936V112.056C164.472 112.933 164.678 113.68 165.088 114.296C165.499 114.912 166.031 115.388 166.684 115.724C167.338 116.06 168.028 116.228 168.756 116.228ZM180.271 119V103.796H183.351V110.236H183.267C183.267 108.052 183.733 106.4 184.667 105.28C185.6 104.16 186.972 103.6 188.783 103.6H189.343V106.988H188.279C186.972 106.988 185.955 107.343 185.227 108.052C184.517 108.743 184.163 109.751 184.163 111.076V119H180.271ZM192.674 119V103.796H196.566V119H192.674ZM190.546 106.708V103.796H196.566V106.708H190.546ZM194.102 101.976C193.337 101.976 192.768 101.78 192.394 101.388C192.04 100.977 191.862 100.473 191.862 99.876C191.862 99.2413 192.04 98.728 192.394 98.336C192.768 97.944 193.337 97.748 194.102 97.748C194.868 97.748 195.428 97.944 195.782 98.336C196.137 98.728 196.314 99.2413 196.314 99.876C196.314 100.473 196.137 100.977 195.782 101.388C195.428 101.78 194.868 101.976 194.102 101.976ZM207.856 119.532C206.549 119.532 205.401 119.308 204.412 118.86C203.441 118.412 202.629 117.815 201.976 117.068C201.341 116.303 200.856 115.453 200.52 114.52C200.203 113.587 200.044 112.635 200.044 111.664V111.132C200.044 110.124 200.203 109.153 200.52 108.22C200.856 107.268 201.341 106.428 201.976 105.7C202.629 104.953 203.432 104.365 204.384 103.936C205.336 103.488 206.437 103.264 207.688 103.264C209.331 103.264 210.703 103.628 211.804 104.356C212.924 105.065 213.764 106.008 214.324 107.184C214.884 108.341 215.164 109.592 215.164 110.936V112.336H201.696V109.956H212.728L211.524 111.132C211.524 110.161 211.384 109.331 211.104 108.64C210.824 107.949 210.395 107.417 209.816 107.044C209.256 106.671 208.547 106.484 207.688 106.484C206.829 106.484 206.101 106.68 205.504 107.072C204.907 107.464 204.449 108.033 204.132 108.78C203.833 109.508 203.684 110.385 203.684 111.412C203.684 112.364 203.833 113.213 204.132 113.96C204.431 114.688 204.888 115.267 205.504 115.696C206.12 116.107 206.904 116.312 207.856 116.312C208.808 116.312 209.583 116.125 210.18 115.752C210.777 115.36 211.16 114.884 211.328 114.324H214.912C214.688 115.369 214.259 116.284 213.624 117.068C212.989 117.852 212.177 118.459 211.188 118.888C210.217 119.317 209.107 119.532 207.856 119.532ZM218.779 119V103.432C218.779 101.696 219.255 100.417 220.207 99.596C221.178 98.756 222.606 98.336 224.491 98.336H226.395V101.332H224.211C223.632 101.332 223.184 101.491 222.867 101.808C222.568 102.107 222.419 102.536 222.419 103.096V119H218.779ZM216.875 106.904V104.048H226.647V106.904H216.875ZM235.745 119.532C234.42 119.532 233.272 119.308 232.301 118.86C231.349 118.412 230.546 117.815 229.893 117.068C229.258 116.321 228.782 115.481 228.465 114.548C228.148 113.615 227.989 112.663 227.989 111.692V111.16C227.989 110.133 228.148 109.153 228.465 108.22C228.801 107.268 229.296 106.428 229.949 105.7C230.602 104.953 231.405 104.365 232.357 103.936C233.328 103.488 234.448 103.264 235.717 103.264C237.042 103.264 238.228 103.525 239.273 104.048C240.318 104.552 241.149 105.261 241.765 106.176C242.4 107.091 242.754 108.155 242.829 109.368H239.049C238.956 108.584 238.62 107.931 238.041 107.408C237.481 106.885 236.706 106.624 235.717 106.624C234.858 106.624 234.14 106.829 233.561 107.24C233.001 107.651 232.581 108.22 232.301 108.948C232.021 109.657 231.881 110.479 231.881 111.412C231.881 112.308 232.012 113.12 232.273 113.848C232.553 114.576 232.973 115.145 233.533 115.556C234.112 115.967 234.849 116.172 235.745 116.172C236.417 116.172 236.996 116.051 237.481 115.808C237.966 115.565 238.349 115.229 238.629 114.8C238.928 114.371 239.114 113.885 239.189 113.344H242.969C242.894 114.576 242.53 115.659 241.877 116.592C241.242 117.507 240.393 118.225 239.329 118.748C238.284 119.271 237.089 119.532 235.745 119.532ZM255.299 119V114.492H254.655V109.48C254.655 108.603 254.44 107.949 254.011 107.52C253.582 107.091 252.919 106.876 252.023 106.876C251.556 106.876 250.996 106.885 250.343 106.904C249.69 106.923 249.027 106.951 248.355 106.988C247.702 107.007 247.114 107.035 246.591 107.072V103.768C247.02 103.731 247.506 103.693 248.047 103.656C248.588 103.619 249.139 103.6 249.699 103.6C250.278 103.581 250.819 103.572 251.323 103.572C252.891 103.572 254.188 103.777 255.215 104.188C256.26 104.599 257.044 105.243 257.567 106.12C258.108 106.997 258.379 108.145 258.379 109.564V119H255.299ZM250.399 119.392C249.298 119.392 248.327 119.196 247.487 118.804C246.666 118.412 246.022 117.852 245.555 117.124C245.107 116.396 244.883 115.519 244.883 114.492C244.883 113.372 245.154 112.457 245.695 111.748C246.255 111.039 247.03 110.507 248.019 110.152C249.027 109.797 250.203 109.62 251.547 109.62H255.075V111.944H251.491C250.595 111.944 249.904 112.168 249.419 112.616C248.952 113.045 248.719 113.605 248.719 114.296C248.719 114.987 248.952 115.547 249.419 115.976C249.904 116.405 250.595 116.62 251.491 116.62C252.032 116.62 252.527 116.527 252.975 116.34C253.442 116.135 253.824 115.799 254.123 115.332C254.44 114.847 254.618 114.193 254.655 113.372L255.607 114.464C255.514 115.528 255.252 116.424 254.823 117.152C254.412 117.88 253.834 118.44 253.087 118.832C252.359 119.205 251.463 119.392 250.399 119.392ZM268.064 119.476C265.973 119.476 264.331 119.037 263.136 118.16C261.96 117.264 261.344 116.032 261.288 114.464H264.788C264.844 114.987 265.133 115.463 265.656 115.892C266.179 116.321 267 116.536 268.12 116.536C269.053 116.536 269.791 116.368 270.332 116.032C270.892 115.696 271.172 115.239 271.172 114.66C271.172 114.156 270.957 113.755 270.528 113.456C270.117 113.157 269.408 112.961 268.4 112.868L267.056 112.728C265.357 112.541 264.051 112.056 263.136 111.272C262.221 110.488 261.764 109.443 261.764 108.136C261.764 107.091 262.025 106.213 262.548 105.504C263.071 104.795 263.789 104.263 264.704 103.908C265.637 103.535 266.701 103.348 267.896 103.348C269.763 103.348 271.275 103.759 272.432 104.58C273.589 105.401 274.196 106.605 274.252 108.192H270.752C270.715 107.669 270.453 107.221 269.968 106.848C269.483 106.475 268.783 106.288 267.868 106.288C267.047 106.288 266.412 106.447 265.964 106.764C265.516 107.081 265.292 107.492 265.292 107.996C265.292 108.481 265.469 108.855 265.824 109.116C266.197 109.377 266.795 109.555 267.616 109.648L268.96 109.788C270.752 109.975 272.152 110.469 273.16 111.272C274.187 112.075 274.7 113.157 274.7 114.52C274.7 115.528 274.42 116.405 273.86 117.152C273.319 117.88 272.553 118.449 271.564 118.86C270.575 119.271 269.408 119.476 268.064 119.476ZM284.719 119.532C283.412 119.532 282.264 119.308 281.275 118.86C280.304 118.412 279.492 117.815 278.839 117.068C278.204 116.303 277.719 115.453 277.383 114.52C277.066 113.587 276.907 112.635 276.907 111.664V111.132C276.907 110.124 277.066 109.153 277.383 108.22C277.719 107.268 278.204 106.428 278.839 105.7C279.492 104.953 280.295 104.365 281.247 103.936C282.199 103.488 283.3 103.264 284.551 103.264C286.194 103.264 287.566 103.628 288.667 104.356C289.787 105.065 290.627 106.008 291.187 107.184C291.747 108.341 292.027 109.592 292.027 110.936V112.336H278.559V109.956H289.591L288.387 111.132C288.387 110.161 288.247 109.331 287.967 108.64C287.687 107.949 287.258 107.417 286.679 107.044C286.119 106.671 285.41 106.484 284.551 106.484C283.692 106.484 282.964 106.68 282.367 107.072C281.77 107.464 281.312 108.033 280.995 108.78C280.696 109.508 280.547 110.385 280.547 111.412C280.547 112.364 280.696 113.213 280.995 113.96C281.294 114.688 281.751 115.267 282.367 115.696C282.983 116.107 283.767 116.312 284.719 116.312C285.671 116.312 286.446 116.125 287.043 115.752C287.64 115.36 288.023 114.884 288.191 114.324H291.775C291.551 115.369 291.122 116.284 290.487 117.068C289.852 117.852 289.04 118.459 288.051 118.888C287.08 119.317 285.97 119.532 284.719 119.532Z" fill="black"/>
<path d="M112.473 170L119.557 154.935L119.419 154.705H110.219V153.21H121.098V155.349L114.267 170H112.473ZM110.219 157.511V153.21H111.691V157.511H110.219ZM134.595 170.391C133.706 170.391 132.893 170.23 132.157 169.908C131.436 169.571 130.808 169.111 130.271 168.528C129.75 167.93 129.343 167.255 129.052 166.504C128.776 165.737 128.638 164.925 128.638 164.066V163.744C128.638 162.916 128.776 162.126 129.052 161.375C129.328 160.608 129.719 159.934 130.225 159.351C130.746 158.753 131.367 158.285 132.088 157.948C132.824 157.595 133.644 157.419 134.549 157.419C135.576 157.419 136.481 157.641 137.263 158.086C138.045 158.531 138.674 159.175 139.149 160.018C139.624 160.846 139.877 161.866 139.908 163.077L139.149 161.651V153.21H140.874V170H139.494V164.595H140.046C140.015 165.868 139.747 166.941 139.241 167.815C138.75 168.674 138.099 169.318 137.286 169.747C136.489 170.176 135.592 170.391 134.595 170.391ZM134.825 168.873C135.653 168.873 136.397 168.689 137.056 168.321C137.731 167.953 138.26 167.432 138.643 166.757C139.026 166.067 139.218 165.277 139.218 164.388V163.284C139.218 162.425 139.026 161.674 138.643 161.03C138.26 160.371 137.731 159.857 137.056 159.489C136.397 159.121 135.645 158.937 134.802 158.937C133.897 158.937 133.108 159.159 132.433 159.604C131.774 160.033 131.26 160.624 130.892 161.375C130.539 162.126 130.363 162.97 130.363 163.905C130.363 164.871 130.547 165.73 130.915 166.481C131.283 167.232 131.804 167.823 132.479 168.252C133.154 168.666 133.936 168.873 134.825 168.873ZM152.733 170V166.343H152.457V162.019C152.457 161.114 152.219 160.424 151.744 159.949C151.268 159.458 150.532 159.213 149.536 159.213C149.076 159.213 148.608 159.221 148.133 159.236C147.673 159.251 147.228 159.274 146.799 159.305C146.385 159.32 146.017 159.343 145.695 159.374V157.856C146.032 157.825 146.377 157.795 146.73 157.764C147.082 157.733 147.443 157.718 147.811 157.718C148.194 157.703 148.562 157.695 148.915 157.695C150.157 157.695 151.153 157.848 151.905 158.155C152.671 158.462 153.231 158.945 153.584 159.604C153.936 160.248 154.113 161.107 154.113 162.18V170H152.733ZM148.616 170.322C147.757 170.322 146.998 170.169 146.339 169.862C145.679 169.555 145.166 169.111 144.798 168.528C144.445 167.945 144.269 167.24 144.269 166.412C144.269 165.599 144.453 164.909 144.821 164.342C145.204 163.775 145.748 163.345 146.454 163.054C147.174 162.747 148.041 162.594 149.053 162.594H152.618V163.905H148.938C147.972 163.905 147.228 164.143 146.707 164.618C146.201 165.078 145.948 165.684 145.948 166.435C145.948 167.202 146.216 167.815 146.753 168.275C147.289 168.72 148.018 168.942 148.938 168.942C149.505 168.942 150.049 168.842 150.571 168.643C151.092 168.428 151.529 168.076 151.882 167.585C152.234 167.079 152.426 166.389 152.457 165.515L152.963 166.228C152.901 167.133 152.687 167.892 152.319 168.505C151.951 169.103 151.452 169.555 150.824 169.862C150.195 170.169 149.459 170.322 148.616 170.322ZM157.318 174.738V173.197H158.882C159.419 173.197 159.879 173.128 160.262 172.99C160.645 172.867 160.967 172.645 161.228 172.323C161.489 172.001 161.711 171.556 161.895 170.989L165.989 157.833H167.668L163.39 171.472C163.145 172.254 162.807 172.883 162.378 173.358C161.949 173.849 161.435 174.201 160.837 174.416C160.239 174.631 159.557 174.738 158.79 174.738H157.318ZM161.274 169.701V168.252H163.459V169.701H161.274ZM161.067 169.701L156.651 157.833H158.422L162.677 169.701H161.067ZM179.894 170.345C178.33 170.345 177.127 170.008 176.283 169.333C175.44 168.643 175.011 167.723 174.995 166.573H176.605C176.636 167.156 176.897 167.685 177.387 168.16C177.893 168.635 178.729 168.873 179.894 168.873C180.983 168.873 181.796 168.651 182.332 168.206C182.884 167.746 183.16 167.194 183.16 166.55C183.16 165.952 182.93 165.492 182.47 165.17C182.026 164.833 181.374 164.618 180.515 164.526L179.135 164.388C178.031 164.265 177.134 163.928 176.444 163.376C175.77 162.809 175.432 162.034 175.432 161.053C175.432 160.332 175.616 159.704 175.984 159.167C176.352 158.63 176.866 158.216 177.525 157.925C178.2 157.618 178.99 157.465 179.894 157.465C181.198 157.465 182.256 157.772 183.068 158.385C183.896 158.998 184.318 159.872 184.333 161.007H182.723C182.708 160.424 182.463 159.934 181.987 159.535C181.512 159.136 180.814 158.937 179.894 158.937C178.944 158.937 178.231 159.144 177.755 159.558C177.295 159.972 177.065 160.478 177.065 161.076C177.065 161.582 177.242 162.004 177.594 162.341C177.947 162.663 178.499 162.862 179.25 162.939L180.63 163.077C181.857 163.215 182.854 163.568 183.62 164.135C184.402 164.702 184.793 165.515 184.793 166.573C184.793 167.294 184.586 167.945 184.172 168.528C183.774 169.095 183.206 169.54 182.47 169.862C181.734 170.184 180.876 170.345 179.894 170.345ZM192.643 170.138C191.8 170.138 191.071 170.015 190.458 169.77C189.845 169.525 189.369 169.111 189.032 168.528C188.695 167.93 188.526 167.133 188.526 166.136V153.992H190.182V166.389C190.182 167.094 190.374 167.639 190.757 168.022C191.14 168.39 191.685 168.574 192.39 168.574H194.575V170.138H192.643ZM186.341 159.144V157.833H194.575V159.144H186.341ZM205.269 170V166.343H204.993V162.019C204.993 161.114 204.755 160.424 204.28 159.949C203.805 159.458 203.069 159.213 202.072 159.213C201.612 159.213 201.144 159.221 200.669 159.236C200.209 159.251 199.764 159.274 199.335 159.305C198.921 159.32 198.553 159.343 198.231 159.374V157.856C198.568 157.825 198.913 157.795 199.266 157.764C199.619 157.733 199.979 157.718 200.347 157.718C200.73 157.703 201.098 157.695 201.451 157.695C202.693 157.695 203.69 157.848 204.441 158.155C205.208 158.462 205.767 158.945 206.12 159.604C206.473 160.248 206.649 161.107 206.649 162.18V170H205.269ZM201.152 170.322C200.293 170.322 199.534 170.169 198.875 169.862C198.216 169.555 197.702 169.111 197.334 168.528C196.981 167.945 196.805 167.24 196.805 166.412C196.805 165.599 196.989 164.909 197.357 164.342C197.74 163.775 198.285 163.345 198.99 163.054C199.711 162.747 200.577 162.594 201.589 162.594H205.154V163.905H201.474C200.508 163.905 199.764 164.143 199.243 164.618C198.737 165.078 198.484 165.684 198.484 166.435C198.484 167.202 198.752 167.815 199.289 168.275C199.826 168.72 200.554 168.942 201.474 168.942C202.041 168.942 202.586 168.842 203.107 168.643C203.628 168.428 204.065 168.076 204.418 167.585C204.771 167.079 204.962 166.389 204.993 165.515L205.499 166.228C205.438 167.133 205.223 167.892 204.855 168.505C204.487 169.103 203.989 169.555 203.36 169.862C202.731 170.169 201.995 170.322 201.152 170.322ZM215.374 170.138C214.53 170.138 213.802 170.015 213.189 169.77C212.575 169.525 212.1 169.111 211.763 168.528C211.425 167.93 211.257 167.133 211.257 166.136V153.992H212.913V166.389C212.913 167.094 213.104 167.639 213.488 168.022C213.871 168.39 214.415 168.574 215.121 168.574H217.306V170.138H215.374ZM209.072 159.144V157.833H217.306V159.144H209.072ZM221.282 170V157.833H222.984V170H221.282ZM219.327 159.213V157.833H222.984V159.213H219.327ZM221.65 155.579C221.236 155.579 220.922 155.472 220.707 155.257C220.508 155.027 220.408 154.743 220.408 154.406C220.408 154.069 220.508 153.793 220.707 153.578C220.922 153.348 221.236 153.233 221.65 153.233C222.064 153.233 222.371 153.348 222.57 153.578C222.77 153.793 222.869 154.069 222.869 154.406C222.869 154.743 222.77 155.027 222.57 155.257C222.371 155.472 222.064 155.579 221.65 155.579ZM231.352 170.345C229.788 170.345 228.585 170.008 227.741 169.333C226.898 168.643 226.469 167.723 226.453 166.573H228.063C228.094 167.156 228.355 167.685 228.845 168.16C229.351 168.635 230.187 168.873 231.352 168.873C232.441 168.873 233.254 168.651 233.79 168.206C234.342 167.746 234.618 167.194 234.618 166.55C234.618 165.952 234.388 165.492 233.928 165.17C233.484 164.833 232.832 164.618 231.973 164.526L230.593 164.388C229.489 164.265 228.592 163.928 227.902 163.376C227.228 162.809 226.89 162.034 226.89 161.053C226.89 160.332 227.074 159.704 227.442 159.167C227.81 158.63 228.324 158.216 228.983 157.925C229.658 157.618 230.448 157.465 231.352 157.465C232.656 157.465 233.714 157.772 234.526 158.385C235.354 158.998 235.776 159.872 235.791 161.007H234.181C234.166 160.424 233.921 159.934 233.445 159.535C232.97 159.136 232.272 158.937 231.352 158.937C230.402 158.937 229.689 159.144 229.213 159.558C228.753 159.972 228.523 160.478 228.523 161.076C228.523 161.582 228.7 162.004 229.052 162.341C229.405 162.663 229.957 162.862 230.708 162.939L232.088 163.077C233.315 163.215 234.312 163.568 235.078 164.135C235.86 164.702 236.251 165.515 236.251 166.573C236.251 167.294 236.044 167.945 235.63 168.528C235.232 169.095 234.664 169.54 233.928 169.862C233.192 170.184 232.334 170.345 231.352 170.345ZM244.101 170.138C243.258 170.138 242.529 170.015 241.916 169.77C241.303 169.525 240.827 169.111 240.49 168.528C240.153 167.93 239.984 167.133 239.984 166.136V153.992H241.64V166.389C241.64 167.094 241.832 167.639 242.215 168.022C242.598 168.39 243.143 168.574 243.848 168.574H246.033V170.138H244.101ZM237.799 159.144V157.833H246.033V159.144H237.799ZM250.01 170V157.833H251.712V170H250.01ZM248.055 159.213V157.833H251.712V159.213H248.055ZM250.378 155.579C249.964 155.579 249.649 155.472 249.435 155.257C249.235 155.027 249.136 154.743 249.136 154.406C249.136 154.069 249.235 153.793 249.435 153.578C249.649 153.348 249.964 153.233 250.378 153.233C250.792 153.233 251.098 153.348 251.298 153.578C251.497 153.793 251.597 154.069 251.597 154.406C251.597 154.743 251.497 155.027 251.298 155.257C251.098 155.472 250.792 155.579 250.378 155.579ZM261.368 170.391C260.34 170.391 259.443 170.215 258.677 169.862C257.925 169.494 257.297 169.003 256.791 168.39C256.285 167.761 255.901 167.071 255.641 166.32C255.395 165.569 255.273 164.81 255.273 164.043V163.721C255.273 162.939 255.395 162.18 255.641 161.444C255.901 160.693 256.285 160.018 256.791 159.42C257.297 158.807 257.925 158.324 258.677 157.971C259.443 157.603 260.325 157.419 261.322 157.419C262.334 157.419 263.231 157.603 264.013 157.971C264.81 158.339 265.454 158.86 265.945 159.535C266.435 160.21 266.727 161.007 266.819 161.927H265.163C265.025 161.084 264.626 160.386 263.967 159.834C263.323 159.267 262.441 158.983 261.322 158.983C260.356 158.983 259.551 159.205 258.907 159.65C258.278 160.079 257.803 160.67 257.481 161.421C257.159 162.157 256.998 162.977 256.998 163.882C256.998 164.771 257.159 165.599 257.481 166.366C257.803 167.117 258.286 167.723 258.93 168.183C259.574 168.628 260.386 168.85 261.368 168.85C262.119 168.85 262.771 168.72 263.323 168.459C263.89 168.183 264.342 167.815 264.68 167.355C265.032 166.895 265.239 166.389 265.301 165.837H266.957C266.895 166.757 266.604 167.562 266.083 168.252C265.577 168.927 264.917 169.456 264.105 169.839C263.292 170.207 262.38 170.391 261.368 170.391ZM273.961 170.345C272.397 170.345 271.193 170.008 270.35 169.333C269.506 168.643 269.077 167.723 269.062 166.573H270.672C270.702 167.156 270.963 167.685 271.454 168.16C271.96 168.635 272.795 168.873 273.961 168.873C275.049 168.873 275.862 168.651 276.399 168.206C276.951 167.746 277.227 167.194 277.227 166.55C277.227 165.952 276.997 165.492 276.537 165.17C276.092 164.833 275.44 164.618 274.582 164.526L273.202 164.388C272.098 164.265 271.201 163.928 270.511 163.376C269.836 162.809 269.499 162.034 269.499 161.053C269.499 160.332 269.683 159.704 270.051 159.167C270.419 158.63 270.932 158.216 271.592 157.925C272.266 157.618 273.056 157.465 273.961 157.465C275.264 157.465 276.322 157.772 277.135 158.385C277.963 158.998 278.384 159.872 278.4 161.007H276.79C276.774 160.424 276.529 159.934 276.054 159.535C275.578 159.136 274.881 158.937 273.961 158.937C273.01 158.937 272.297 159.144 271.822 159.558C271.362 159.972 271.132 160.478 271.132 161.076C271.132 161.582 271.308 162.004 271.661 162.341C272.013 162.663 272.565 162.862 273.317 162.939L274.697 163.077C275.923 163.215 276.92 163.568 277.687 164.135C278.469 164.702 278.86 165.515 278.86 166.573C278.86 167.294 278.653 167.945 278.239 168.528C277.84 169.095 277.273 169.54 276.537 169.862C275.801 170.184 274.942 170.345 273.961 170.345Z" fill="#636363"/>
<path d="M552.605 122.655L538.032 131.886L531.905 130.682L528.095 117.836L516.032 138.448L507.163 127.027L496.763 115.305L471.891 144.285L471.236 123.592L447.997 184.344L438.462 112.311L435.681 126.279L428.022 124.774L424.777 141.071L413.308 126.72L405.931 139.785L396.831 129.528L369.54 138.679L351.491 165.371L329.712 130.848" stroke="#63FFA1" stroke-width="7"/>
</svg>
