<svg width="717" height="447" viewBox="0 0 717 447" fill="none" xmlns="http://www.w3.org/2000/svg">
<rect width="717" height="447" rx="8" fill="white" fill-opacity="0.55"/>
<rect x="77" y="86" width="45" height="250" rx="10" fill="#63FFA1" fill-opacity="0.15"/>
<rect x="77" y="211" width="45" height="125" rx="10" fill="#63FFA1" fill-opacity="0.45"/>
<rect x="77" y="271" width="45" height="72" rx="10" fill="#63FFA1"/>
<path d="M74.622 386V369.21H76.899L82.189 380.825H82.603L87.87 369.21H90.193V386H88.445V371.165L88.583 371.188L83.477 382.458H81.177L76.048 371.188L76.232 371.165V386H74.622ZM100.503 386.391C99.4606 386.391 98.5406 386.215 97.7433 385.862C96.9613 385.494 96.2943 385.011 95.7423 384.413C95.2056 383.8 94.7916 383.117 94.5003 382.366C94.2243 381.615 94.0863 380.848 94.0863 380.066V379.744C94.0863 378.962 94.232 378.195 94.5233 377.444C94.8146 376.677 95.2363 375.995 95.7883 375.397C96.3403 374.799 97.0073 374.324 97.7893 373.971C98.5866 373.603 99.4913 373.419 100.503 373.419C101.531 373.419 102.435 373.603 103.217 373.971C104.015 374.324 104.689 374.799 105.241 375.397C105.793 375.995 106.207 376.677 106.483 377.444C106.775 378.195 106.92 378.962 106.92 379.744V380.066C106.92 380.848 106.782 381.615 106.506 382.366C106.23 383.117 105.816 383.8 105.264 384.413C104.728 385.011 104.061 385.494 103.263 385.862C102.466 386.215 101.546 386.391 100.503 386.391ZM100.503 384.85C101.515 384.85 102.366 384.628 103.056 384.183C103.762 383.723 104.298 383.125 104.666 382.389C105.034 381.638 105.218 380.81 105.218 379.905C105.218 378.985 105.027 378.157 104.643 377.421C104.275 376.67 103.739 376.079 103.033 375.65C102.328 375.205 101.485 374.983 100.503 374.983C99.5373 374.983 98.7016 375.205 97.9963 375.65C97.291 376.079 96.7466 376.67 96.3633 377.421C95.9953 378.157 95.8113 378.985 95.8113 379.905C95.8113 380.81 95.9953 381.638 96.3633 382.389C96.7313 383.125 97.2603 383.723 97.9503 384.183C98.6556 384.628 99.5066 384.85 100.503 384.85ZM110.438 386V373.833H111.818V378.939H111.542C111.542 377.804 111.711 376.831 112.048 376.018C112.385 375.205 112.891 374.577 113.566 374.132C114.241 373.687 115.092 373.465 116.119 373.465H116.188C117.721 373.465 118.864 373.948 119.615 374.914C120.366 375.865 120.742 377.206 120.742 378.939V386H119.04V378.571C119.04 377.513 118.749 376.662 118.166 376.018C117.583 375.374 116.771 375.052 115.728 375.052C114.655 375.052 113.788 375.389 113.129 376.064C112.485 376.723 112.163 377.597 112.163 378.686V386H110.438Z" fill="#636363"/>
<rect x="163" y="86" width="45" height="250" rx="10" fill="#63FFA1" fill-opacity="0.15"/>
<rect x="163" y="176" width="45" height="160" rx="10" fill="#63FFA1" fill-opacity="0.45"/>
<rect x="163" y="247" width="45" height="96" rx="10" fill="#63FFA1"/>
<path d="M167.888 386V370.36H169.636V386H167.888ZM162.644 370.797V369.21H174.88V370.797H162.644ZM180.906 386.345C179.449 386.345 178.337 385.877 177.571 384.942C176.804 383.991 176.421 382.673 176.421 380.986V373.81H178.123V381.331C178.123 382.389 178.399 383.232 178.951 383.861C179.518 384.474 180.3 384.781 181.297 384.781C182.339 384.781 183.167 384.451 183.781 383.792C184.409 383.133 184.724 382.251 184.724 381.147V373.81H186.449V386H185.069V380.917H185.345C185.345 382.052 185.184 383.025 184.862 383.838C184.54 384.635 184.057 385.256 183.413 385.701C182.769 386.13 181.956 386.345 180.975 386.345H180.906ZM196.043 386.391C195 386.391 194.095 386.215 193.329 385.862C192.562 385.494 191.933 385.011 191.443 384.413C190.952 383.8 190.584 383.117 190.339 382.366C190.109 381.615 189.994 380.84 189.994 380.043V379.721C189.994 378.939 190.109 378.172 190.339 377.421C190.584 376.67 190.952 375.995 191.443 375.397C191.933 374.799 192.547 374.324 193.283 373.971C194.034 373.603 194.908 373.419 195.905 373.419C197.177 373.419 198.235 373.703 199.079 374.27C199.937 374.837 200.581 375.566 201.011 376.455C201.44 377.329 201.655 378.272 201.655 379.284V380.181H190.776V378.847H200.459L200.022 379.514C200.022 378.609 199.861 377.82 199.539 377.145C199.232 376.455 198.772 375.918 198.159 375.535C197.561 375.136 196.809 374.937 195.905 374.937C194.954 374.937 194.164 375.159 193.536 375.604C192.907 376.049 192.432 376.639 192.11 377.375C191.803 378.111 191.65 378.947 191.65 379.882C191.65 380.802 191.803 381.645 192.11 382.412C192.432 383.163 192.915 383.761 193.559 384.206C194.218 384.651 195.046 384.873 196.043 384.873C197.101 384.873 197.959 384.635 198.619 384.16C199.278 383.669 199.684 383.094 199.838 382.435H201.448C201.294 383.248 200.972 383.953 200.482 384.551C199.991 385.134 199.37 385.586 198.619 385.908C197.867 386.23 197.009 386.391 196.043 386.391Z" fill="#636363"/>
<rect x="249" y="86" width="45" height="250" rx="10" fill="#63FFA1" fill-opacity="0.15"/>
<rect x="249" y="240" width="45" height="100" rx="10" fill="#63FFA1" fill-opacity="0.45"/>
<rect x="249" y="276" width="45" height="67" rx="10" fill="#63FFA1"/>
<path d="M251.405 386L246.759 369.21H248.553L252.762 384.873L251.957 384.413H254.188L253.314 384.873L256.741 369.946H258.397L254.625 386H251.405ZM261.502 386L257.362 369.946H259.064L262.882 384.873L262.031 384.413H264.308L263.434 384.873L267.229 369.21H268.977L264.722 386H261.502ZM276.561 386.391C275.518 386.391 274.614 386.215 273.847 385.862C273.08 385.494 272.452 385.011 271.961 384.413C271.47 383.8 271.102 383.117 270.857 382.366C270.627 381.615 270.512 380.84 270.512 380.043V379.721C270.512 378.939 270.627 378.172 270.857 377.421C271.102 376.67 271.47 375.995 271.961 375.397C272.452 374.799 273.065 374.324 273.801 373.971C274.552 373.603 275.426 373.419 276.423 373.419C277.696 373.419 278.754 373.703 279.597 374.27C280.456 374.837 281.1 375.566 281.529 376.455C281.958 377.329 282.173 378.272 282.173 379.284V380.181H271.294V378.847H280.977L280.54 379.514C280.54 378.609 280.379 377.82 280.057 377.145C279.75 376.455 279.29 375.918 278.677 375.535C278.079 375.136 277.328 374.937 276.423 374.937C275.472 374.937 274.683 375.159 274.054 375.604C273.425 376.049 272.95 376.639 272.628 377.375C272.321 378.111 272.168 378.947 272.168 379.882C272.168 380.802 272.321 381.645 272.628 382.412C272.95 383.163 273.433 383.761 274.077 384.206C274.736 384.651 275.564 384.873 276.561 384.873C277.619 384.873 278.478 384.635 279.137 384.16C279.796 383.669 280.203 383.094 280.356 382.435H281.966C281.813 383.248 281.491 383.953 281 384.551C280.509 385.134 279.888 385.586 279.137 385.908C278.386 386.23 277.527 386.391 276.561 386.391ZM290.485 386.391C289.595 386.391 288.783 386.23 288.047 385.908C287.326 385.571 286.697 385.111 286.161 384.528C285.639 383.93 285.233 383.255 284.942 382.504C284.666 381.737 284.528 380.925 284.528 380.066V379.744C284.528 378.916 284.666 378.126 284.942 377.375C285.218 376.608 285.609 375.934 286.115 375.351C286.636 374.753 287.257 374.285 287.978 373.948C288.714 373.595 289.534 373.419 290.439 373.419C291.466 373.419 292.371 373.641 293.153 374.086C293.935 374.531 294.563 375.175 295.039 376.018C295.514 376.846 295.767 377.866 295.798 379.077L295.039 377.651V369.21H296.764V386H295.384V380.595H295.936C295.905 381.868 295.637 382.941 295.131 383.815C294.64 384.674 293.988 385.318 293.176 385.747C292.378 386.176 291.481 386.391 290.485 386.391ZM290.715 384.873C291.543 384.873 292.286 384.689 292.946 384.321C293.62 383.953 294.149 383.432 294.533 382.757C294.916 382.067 295.108 381.277 295.108 380.388V379.284C295.108 378.425 294.916 377.674 294.533 377.03C294.149 376.371 293.62 375.857 292.946 375.489C292.286 375.121 291.535 374.937 290.692 374.937C289.787 374.937 288.997 375.159 288.323 375.604C287.663 376.033 287.15 376.624 286.782 377.375C286.429 378.126 286.253 378.97 286.253 379.905C286.253 380.871 286.437 381.73 286.805 382.481C287.173 383.232 287.694 383.823 288.369 384.252C289.043 384.666 289.825 384.873 290.715 384.873Z" fill="#636363"/>
<rect x="336" y="86" width="45" height="250" rx="10" fill="#63FFA1" fill-opacity="0.15"/>
<rect x="336" y="186" width="45" height="150" rx="10" fill="#63FFA1" fill-opacity="0.45"/>
<rect x="336" y="247" width="45" height="96" rx="10" fill="#63FFA1"/>
<path d="M339.888 386V370.36H341.636V386H339.888ZM334.644 370.797V369.21H346.88V370.797H334.644ZM349.752 386V369.21H351.477V378.709L350.971 379.1C350.971 377.965 351.132 376.976 351.454 376.133C351.792 375.29 352.29 374.638 352.949 374.178C353.624 373.703 354.467 373.465 355.479 373.465H355.571C357.043 373.465 358.155 373.948 358.906 374.914C359.673 375.88 360.056 377.222 360.056 378.939V386H358.354V378.571C358.354 377.482 358.055 376.624 357.457 375.995C356.859 375.366 356.054 375.052 355.042 375.052C353.954 375.052 353.087 375.405 352.443 376.11C351.799 376.8 351.477 377.712 351.477 378.847V386H349.752ZM368.561 386.345C367.104 386.345 365.993 385.877 365.226 384.942C364.459 383.991 364.076 382.673 364.076 380.986V373.81H365.778V381.331C365.778 382.389 366.054 383.232 366.606 383.861C367.173 384.474 367.955 384.781 368.952 384.781C369.995 384.781 370.823 384.451 371.436 383.792C372.065 383.133 372.379 382.251 372.379 381.147V373.81H374.104V386H372.724V380.917H373C373 382.052 372.839 383.025 372.517 383.838C372.195 384.635 371.712 385.256 371.068 385.701C370.424 386.13 369.611 386.345 368.63 386.345H368.561ZM378.615 386V373.833H379.995V378.916H379.857C379.857 377.137 380.248 375.826 381.03 374.983C381.812 374.124 383.038 373.695 384.71 373.695H385.101V375.259H384.388C383.069 375.259 382.065 375.604 381.375 376.294C380.685 376.969 380.34 377.965 380.34 379.284V386H378.615Z" fill="#636363"/>
<rect x="422" y="86" width="45" height="250" rx="10" fill="#63FFA1" fill-opacity="0.15"/>
<rect x="422" y="152" width="45" height="184" rx="10" fill="#63FFA1" fill-opacity="0.45"/>
<rect x="422" y="218" width="45" height="125" rx="10" fill="#63FFA1"/>
<path d="M431.622 386V369.21H433.37V386H431.622ZM432.91 378.249V376.662L440.339 376.639V378.226L432.91 378.249ZM432.91 370.774V369.21H440.776V370.774H432.91ZM443.899 386V373.833H445.279V378.916H445.141C445.141 377.137 445.532 375.826 446.314 374.983C447.096 374.124 448.323 373.695 449.994 373.695H450.385V375.259H449.672C448.353 375.259 447.349 375.604 446.659 376.294C445.969 376.969 445.624 377.965 445.624 379.284V386H443.899ZM453.819 386V373.833H455.521V386H453.819ZM451.864 375.213V373.833H455.521V375.213H451.864ZM454.187 371.579C453.773 371.579 453.459 371.472 453.244 371.257C453.045 371.027 452.945 370.743 452.945 370.406C452.945 370.069 453.045 369.793 453.244 369.578C453.459 369.348 453.773 369.233 454.187 369.233C454.601 369.233 454.908 369.348 455.107 369.578C455.307 369.793 455.406 370.069 455.406 370.406C455.406 370.743 455.307 371.027 455.107 371.257C454.908 371.472 454.601 371.579 454.187 371.579Z" fill="#636363"/>
<rect x="508" y="86" width="45" height="250" rx="10" fill="#63FFA1" fill-opacity="0.15"/>
<rect x="508" y="264" width="45" height="72" rx="10" fill="#63FFA1" fill-opacity="0.45"/>
<rect x="508" y="303" width="45" height="40" rx="10" fill="#63FFA1"/>
<path d="M515.004 386.391C513.593 386.391 512.405 386.169 511.439 385.724C510.473 385.264 509.737 384.635 509.231 383.838C508.74 383.025 508.495 382.113 508.495 381.101H510.243C510.243 381.745 510.396 382.351 510.703 382.918C511.025 383.47 511.531 383.922 512.221 384.275C512.926 384.612 513.854 384.781 515.004 384.781C516.062 384.781 516.936 384.628 517.626 384.321C518.331 384.014 518.853 383.6 519.19 383.079C519.543 382.558 519.719 381.975 519.719 381.331C519.719 380.518 519.397 379.844 518.753 379.307C518.124 378.755 517.174 378.425 515.901 378.318L513.969 378.134C512.528 378.011 511.378 377.567 510.519 376.8C509.676 376.018 509.254 374.991 509.254 373.718C509.254 372.752 509.484 371.901 509.944 371.165C510.404 370.429 511.056 369.846 511.899 369.417C512.758 368.988 513.785 368.773 514.981 368.773C516.192 368.773 517.227 368.995 518.086 369.44C518.96 369.869 519.627 370.467 520.087 371.234C520.547 372.001 520.777 372.89 520.777 373.902H519.029C519.029 373.289 518.891 372.714 518.615 372.177C518.339 371.64 517.902 371.211 517.304 370.889C516.706 370.552 515.932 370.383 514.981 370.383C514.076 370.383 513.325 370.536 512.727 370.843C512.144 371.15 511.707 371.556 511.416 372.062C511.14 372.568 511.002 373.12 511.002 373.718C511.002 374.469 511.27 375.106 511.807 375.627C512.344 376.148 513.118 376.447 514.13 376.524L516.062 376.708C517.197 376.8 518.163 377.053 518.96 377.467C519.773 377.866 520.394 378.395 520.823 379.054C521.252 379.698 521.467 380.457 521.467 381.331C521.467 382.312 521.199 383.186 520.662 383.953C520.141 384.72 519.397 385.318 518.431 385.747C517.465 386.176 516.323 386.391 515.004 386.391ZM532.674 386V382.343H532.398V378.019C532.398 377.114 532.16 376.424 531.685 375.949C531.21 375.458 530.474 375.213 529.477 375.213C529.017 375.213 528.549 375.221 528.074 375.236C527.614 375.251 527.169 375.274 526.74 375.305C526.326 375.32 525.958 375.343 525.636 375.374V373.856C525.973 373.825 526.318 373.795 526.671 373.764C527.024 373.733 527.384 373.718 527.752 373.718C528.135 373.703 528.503 373.695 528.856 373.695C530.098 373.695 531.095 373.848 531.846 374.155C532.613 374.462 533.172 374.945 533.525 375.604C533.878 376.248 534.054 377.107 534.054 378.18V386H532.674ZM528.557 386.322C527.698 386.322 526.939 386.169 526.28 385.862C525.621 385.555 525.107 385.111 524.739 384.528C524.386 383.945 524.21 383.24 524.21 382.412C524.21 381.599 524.394 380.909 524.762 380.342C525.145 379.775 525.69 379.345 526.395 379.054C527.116 378.747 527.982 378.594 528.994 378.594H532.559V379.905H528.879C527.913 379.905 527.169 380.143 526.648 380.618C526.142 381.078 525.889 381.684 525.889 382.435C525.889 383.202 526.157 383.815 526.694 384.275C527.231 384.72 527.959 384.942 528.879 384.942C529.446 384.942 529.991 384.842 530.512 384.643C531.033 384.428 531.47 384.076 531.823 383.585C532.176 383.079 532.367 382.389 532.398 381.515L532.904 382.228C532.843 383.133 532.628 383.892 532.26 384.505C531.892 385.103 531.394 385.555 530.765 385.862C530.136 386.169 529.4 386.322 528.557 386.322ZM542.779 386.138C541.936 386.138 541.207 386.015 540.594 385.77C539.981 385.525 539.505 385.111 539.168 384.528C538.831 383.93 538.662 383.133 538.662 382.136V369.992H540.318V382.389C540.318 383.094 540.51 383.639 540.893 384.022C541.276 384.39 541.821 384.574 542.526 384.574H544.711V386.138H542.779ZM536.477 375.144V373.833H544.711V375.144H536.477Z" fill="#636363"/>
<rect x="594" y="86" width="45" height="250" rx="10" fill="#63FFA1" fill-opacity="0.15"/>
<rect x="594" y="221" width="45" height="115" rx="10" fill="#63FFA1" fill-opacity="0.45"/>
<rect x="594" y="271" width="45" height="72" rx="10" fill="#63FFA1"/>
<path d="M600.004 386.391C598.593 386.391 597.405 386.169 596.439 385.724C595.473 385.264 594.737 384.635 594.231 383.838C593.74 383.025 593.495 382.113 593.495 381.101H595.243C595.243 381.745 595.396 382.351 595.703 382.918C596.025 383.47 596.531 383.922 597.221 384.275C597.926 384.612 598.854 384.781 600.004 384.781C601.062 384.781 601.936 384.628 602.626 384.321C603.331 384.014 603.853 383.6 604.19 383.079C604.543 382.558 604.719 381.975 604.719 381.331C604.719 380.518 604.397 379.844 603.753 379.307C603.124 378.755 602.174 378.425 600.901 378.318L598.969 378.134C597.528 378.011 596.378 377.567 595.519 376.8C594.676 376.018 594.254 374.991 594.254 373.718C594.254 372.752 594.484 371.901 594.944 371.165C595.404 370.429 596.056 369.846 596.899 369.417C597.758 368.988 598.785 368.773 599.981 368.773C601.192 368.773 602.227 368.995 603.086 369.44C603.96 369.869 604.627 370.467 605.087 371.234C605.547 372.001 605.777 372.89 605.777 373.902H604.029C604.029 373.289 603.891 372.714 603.615 372.177C603.339 371.64 602.902 371.211 602.304 370.889C601.706 370.552 600.932 370.383 599.981 370.383C599.076 370.383 598.325 370.536 597.727 370.843C597.144 371.15 596.707 371.556 596.416 372.062C596.14 372.568 596.002 373.12 596.002 373.718C596.002 374.469 596.27 375.106 596.807 375.627C597.344 376.148 598.118 376.447 599.13 376.524L601.062 376.708C602.197 376.8 603.163 377.053 603.96 377.467C604.773 377.866 605.394 378.395 605.823 379.054C606.252 379.698 606.467 380.457 606.467 381.331C606.467 382.312 606.199 383.186 605.662 383.953C605.141 384.72 604.397 385.318 603.431 385.747C602.465 386.176 601.323 386.391 600.004 386.391ZM614.477 386.345C613.02 386.345 611.909 385.877 611.142 384.942C610.375 383.991 609.992 382.673 609.992 380.986V373.81H611.694V381.331C611.694 382.389 611.97 383.232 612.522 383.861C613.089 384.474 613.871 384.781 614.868 384.781C615.911 384.781 616.739 384.451 617.352 383.792C617.981 383.133 618.295 382.251 618.295 381.147V373.81H620.02V386H618.64V380.917H618.916C618.916 382.052 618.755 383.025 618.433 383.838C618.111 384.635 617.628 385.256 616.984 385.701C616.34 386.13 615.527 386.345 614.546 386.345H614.477ZM624.531 386V373.833H625.911V378.939H625.635C625.635 377.804 625.803 376.831 626.141 376.018C626.478 375.205 626.984 374.577 627.659 374.132C628.333 373.687 629.184 373.465 630.212 373.465H630.281C631.814 373.465 632.956 373.948 633.708 374.914C634.459 375.865 634.835 377.206 634.835 378.939V386H633.133V378.571C633.133 377.513 632.841 376.662 632.259 376.018C631.676 375.374 630.863 375.052 629.821 375.052C628.747 375.052 627.881 375.389 627.222 376.064C626.578 376.723 626.256 377.597 626.256 378.686V386H624.531Z" fill="#636363"/>
</svg>
