<svg width="79" height="82" viewBox="0 0 79 82" fill="none" xmlns="http://www.w3.org/2000/svg">
<path d="M10.3742 47.1925C12.2 50.04 14.5088 53.4988 17.2155 57.2637C19.1905 60.0109 21.3773 62.9212 23.7429 65.8759C44.9504 57.9001 54.9625 58.7845 70.6782 61.8811L78.3423 49.328C66.5878 44.7631 57.7777 43.6432 35.8895 45.6615C49.6553 37.5262 55.5381 31.6961 62.4123 9.0254L45.7481 1.98412C43.7584 24.9672 33.8255 33.8799 10.3742 47.1925Z" fill="#2D2F3E"/>
<path d="M45.7481 1.98412C2.61121 -5.18884 -6.91001 15.5351 5.66398 39.46C5.66398 39.46 7.3616 42.4942 10.3742 47.1925C33.8255 33.8799 43.7584 24.9672 45.7481 1.98412Z" fill="#63FFA1"/>
<path d="M33.2051 76.7434C49.3461 93.6507 70.6782 61.8811 70.6782 61.8811C54.9625 58.7845 44.9504 57.9001 23.7429 65.8759C26.6479 69.5044 29.8224 73.2001 33.2051 76.7434Z" fill="#63FFA1"/>
</svg>
