<svg width="40" height="40" viewBox="0 0 40 40" fill="none" xmlns="http://www.w3.org/2000/svg">
<path fill-rule="evenodd" clip-rule="evenodd" d="M32.9167 20.0001C32.9167 19.3097 32.3571 18.7501 31.6667 18.7501H8.33337C7.64302 18.7501 7.08337 19.3097 7.08337 20.0001C7.08337 20.6904 7.64302 21.2501 8.33337 21.2501H31.6667C32.3571 21.2501 32.9167 20.6904 32.9167 20.0001Z" fill="#363A58"/>
<path fill-rule="evenodd" clip-rule="evenodd" d="M32.9167 11.6667C32.9167 10.9764 32.3571 10.4167 31.6667 10.4167H8.33337C7.64302 10.4167 7.08337 10.9764 7.08337 11.6667C7.08337 12.3571 7.64302 12.9167 8.33337 12.9167H31.6667C32.3571 12.9167 32.9167 12.3571 32.9167 11.6667Z" fill="#363A58"/>
<path fill-rule="evenodd" clip-rule="evenodd" d="M32.9167 28.3334C32.9167 27.6431 32.3571 27.0834 31.6667 27.0834H8.33337C7.64302 27.0834 7.08337 27.6431 7.08337 28.3334C7.08337 29.0238 7.64302 29.5834 8.33337 29.5834H31.6667C32.3571 29.5834 32.9167 29.0238 32.9167 28.3334Z" fill="#363A58"/>
</svg>
